<svg id="visual" viewBox="0 0 960 540" width="960" height="540" xmlns="http://www.w3.org/2000/svg" xmlns:xlink="http://www.w3.org/1999/xlink" version="1.1"><rect x="0" y="0" width="960" height="540" fill="#62414e"></rect><path d="M0 101L22.8 104.7C45.7 108.3 91.3 115.7 137 124.7C182.7 133.7 228.3 144.3 274 140.5C319.7 136.7 365.3 118.3 411.2 121C457 123.7 503 147.3 548.8 148.7C594.7 150 640.3 129 686 133.2C731.7 137.3 777.3 166.7 823 185.5C868.7 204.3 914.3 212.7 937.2 216.8L960 221L960 541L937.2 541C914.3 541 868.7 541 823 541C777.3 541 731.7 541 686 541C640.3 541 594.7 541 548.8 541C503 541 457 541 411.2 541C365.3 541 319.7 541 274 541C228.3 541 182.7 541 137 541C91.3 541 45.7 541 22.8 541L0 541Z" fill="#d52c72"></path><path d="M0 314L22.8 316.7C45.7 319.3 91.3 324.7 137 323C182.7 321.3 228.3 312.7 274 303C319.7 293.3 365.3 282.7 411.2 272.2C457 261.7 503 251.3 548.8 259.8C594.7 268.3 640.3 295.7 686 296.3C731.7 297 777.3 271 823 255.3C868.7 239.7 914.3 234.3 937.2 231.7L960 229L960 541L937.2 541C914.3 541 868.7 541 823 541C777.3 541 731.7 541 686 541C640.3 541 594.7 541 548.8 541C503 541 457 541 411.2 541C365.3 541 319.7 541 274 541C228.3 541 182.7 541 137 541C91.3 541 45.7 541 22.8 541L0 541Z" fill="#c56b9c"></path><path d="M0 438L22.8 426.5C45.7 415 91.3 392 137 380.8C182.7 369.7 228.3 370.3 274 375.7C319.7 381 365.3 391 411.2 389.5C457 388 503 375 548.8 368.8C594.7 362.7 640.3 363.3 686 376C731.7 388.7 777.3 413.3 823 412.3C868.7 411.3 914.3 384.7 937.2 371.3L960 358L960 541L937.2 541C914.3 541 868.7 541 823 541C777.3 541 731.7 541 686 541C640.3 541 594.7 541 548.8 541C503 541 457 541 411.2 541C365.3 541 319.7 541 274 541C228.3 541 182.7 541 137 541C91.3 541 45.7 541 22.8 541L0 541Z" fill="#b496b0"></path></svg>